<?xml version="1.0" encoding="UTF-8"?>
<!DOCTYPE svg PUBLIC "-//W3C//DTD SVG 20010904//EN"
 "http://www.w3.org/TR/2001/REC-SVG-20010904/DTD/svg10.dtd">
<svg version="1.0" xmlns="http://www.w3.org/2000/svg"
 width="197" height="56.6" viewBox="0 0 195.000000 56.000000"
 >

<g transform="translate(0.000000,56.000000) scale(0.100000,-0.100000)"
fill="#000000" stroke="none">
<path d="M0 280 l0 -280 975 0 975 0 0 280 0 280 -975 0 -975 0 0 -280z m210
110 c8 -5 11 -12 8 -16 -10 -9 -38 3 -38 16 0 12 10 13 30 0z m40 0 c0 -5 -2
-10 -4 -10 -3 0 -8 5 -11 10 -3 6 -1 10 4 10 6 0 11 -4 11 -10z m-95 -10 c3
-5 -3 -10 -14 -10 -11 0 -23 5 -26 10 -3 6 3 10 14 10 11 0 23 -4 26 -10z
m-59 -11 c3 -6 0 -15 -7 -20 -9 -6 0 -7 25 -3 34 6 38 5 33 -10 -6 -14 -2 -16
28 -10 31 5 34 4 29 -11 -6 -14 -3 -16 16 -10 18 6 22 4 18 -7 -3 -8 -14 -42
-23 -76 -10 -34 -22 -62 -27 -62 -6 0 -48 12 -94 26 -69 21 -84 29 -80 42 3 9
15 47 26 85 20 64 39 83 56 56z m984 -34 c0 -21 5 -25 30 -25 22 0 33 -6 41
-24 24 -52 -15 -105 -67 -92 -22 6 -24 11 -24 71 0 35 -5 67 -10 70 -13 8 -3
25 16 25 8 0 14 -10 14 -25z m-707 -37 l32 -53 3 33 c2 18 -2 40 -8 48 -10 11
-9 15 4 20 25 9 52 -4 38 -18 -7 -7 -12 -40 -12 -75 0 -35 -4 -63 -9 -63 -5 0
-24 24 -42 52 -33 51 -34 52 -37 25 -2 -16 -1 -35 2 -43 9 -23 7 -28 -11 -30
-25 -4 -36 6 -23 21 12 15 11 103 -2 111 -5 3 -6 10 -3 15 14 21 37 6 68 -43z
m187 -31 c0 -24 5 -48 12 -55 7 -7 10 -12 8 -13 -3 0 -24 -2 -48 -4 -34 -3
-45 1 -57 18 -32 45 -4 97 51 97 33 0 34 -1 34 -43z m120 32 c0 -6 -11 -25
-25 -43 -30 -39 -32 -50 -6 -36 27 14 31 13 31 -7 0 -14 -8 -18 -39 -18 -22 0
-43 3 -46 7 -4 4 5 22 19 41 30 39 32 47 11 47 -8 0 -15 -5 -15 -11 0 -5 -4
-7 -10 -4 -5 3 -10 13 -10 21 0 10 12 14 45 14 25 0 45 -5 45 -11z m108 -17
c3 -18 -3 -26 -27 -35 -37 -14 -35 -33 3 -30 33 2 34 -15 1 -23 -53 -13 -86
56 -48 98 24 26 67 20 71 -10z m112 7 c0 -21 -16 -26 -22 -7 -2 6 -10 8 -16 4
-15 -9 -16 -76 -1 -76 5 0 8 -4 5 -9 -3 -4 -15 -8 -27 -7 -18 1 -21 8 -22 57
l-2 56 43 1 c35 0 42 -3 42 -19z m52 -26 c2 -35 7 -48 18 -48 11 0 15 12 14
48 0 39 3 47 18 47 15 0 18 -8 18 -44 0 -24 2 -50 5 -58 4 -9 -7 -14 -40 -15
-51 -2 -59 6 -68 75 -4 36 -3 42 13 42 15 0 19 -9 22 -47z m260 5 c2 -30 8
-43 18 -43 11 0 15 11 14 43 -1 34 3 42 18 42 16 0 18 -9 18 -68 0 -40 -5 -73
-12 -80 -15 -15 -74 -16 -83 -2 -10 16 5 34 18 21 10 -10 47 -16 47 -7 0 2 3
11 6 20 5 13 1 15 -24 10 -35 -7 -45 7 -55 69 -5 32 -3 37 13 37 15 0 19 -9
22 -42z"/>
<path d="M60 281 c0 -8 50 -22 74 -20 14 1 -44 28 -61 29 -7 0 -13 -4 -13 -9z"/>
<path d="M155 250 c3 -5 16 -10 28 -10 18 0 19 2 7 10 -20 13 -43 13 -35 0z"/>
<path d="M44 231 c7 -10 126 -44 133 -37 3 2 -25 14 -62 25 -76 24 -78 24 -71
12z"/>
<path d="M1087 284 c-11 -11 -8 -62 3 -69 18 -11 41 17 38 44 -3 25 -27 39
-41 25z"/>
<path d="M494 265 c-8 -34 2 -57 23 -53 13 2 19 14 21 41 3 32 0 37 -17 37
-14 0 -23 -9 -27 -25z"/>
<path d="M735 279 c-4 -6 -4 -13 -1 -16 8 -8 36 5 36 17 0 13 -27 13 -35 -1z"/>
</g>
</svg>
